<?xml version="1.0" encoding="utf-8"?>
<!-- Generator: Adobe Illustrator 24.0.2, SVG Export Plug-In . SVG Version: 6.00 Build 0)  -->
<svg version="1.0" id="Layer_1" xmlns="http://www.w3.org/2000/svg" xmlns:xlink="http://www.w3.org/1999/xlink" x="0px" y="0px"
	 viewBox="0 0 135 136.9" style="enable-background:new 0 0 135 136.9;" xml:space="preserve">
<style type="text/css">
	.st0{fill:#FFFFFF;}
	.st1{fill:#F4931C;}
</style>
<title>Asset 1</title>
<g id="Layer_2_1_">
	<g id="Layer_1-2">
		<rect class="st0" width="135" height="136.9"/>
		<path class="st1" d="M63.9,59.1c4.9,1.2,19.9,3.6,19.4,12.2c0.8-1,1.3-2.2,1.5-3.5C86.6,56.9,68.7,55.6,63,54.7l-3,18.5h0.3
			L63.9,59.1z M52.2,30.2c0-1.8-0.8-3.9-4.2-4.5c-0.1,0-0.1,0-0.2-0.1L46.7,30c0,0,4.3,1,5.3,1.3L52.2,30.2z M100.5,44.2
			c-1.2,4.2-4.4,7.5-8.6,8.7c1.9,0.8,3.7,1.8,5.3,3.1c1.8-2.1,3-4.8,3.3-7.6C100.7,47,100.7,45.6,100.5,44.2z M69.6,36.3
			c3.3,0.8,12,2.2,15,6.7c0.2-0.6,0.4-1.2,0.5-1.8c1.6-9.9-13.4-10.8-18.1-11.6l-2.6,16.7c0.7,0.1,1.6,0.3,2.6,0.5L69.6,36.3z
			 M74.7,15l-5.3-1.3l-1,5.9c1.7,0.2,3.3,0.5,4.9,0.7L74.7,15z M73.2,85.6l-0.5,3c11.1,1.8,19.6,0.8,24-8
			C91.7,86,83.4,86.7,73.2,85.6z M64.9,84.4c-2.2-0.4-4.4-0.7-6.6-1.2l-0.3,2c1.8,0.5,3.6,0.9,5.3,1.4L60.2,99l7.6,1.9l0.4-1.8
			l-5.6-0.9L64.9,84.4z M50,81.8l-5.9-1L35,79.2l9.3,2.3c1.8,0.5,3.6,0.9,5.4,1.4l-3.2,12.6l7.6,1.9l0.2-0.7l-6.5-1.1L50,81.8z
			 M88.4,18.5l-4.2-1.1l-0.8,5c1.3,0.3,2.6,0.7,3.8,1.1L88.4,18.5z M47.2,59c-3.2,0.2-6.4,0.6-9.5,1.2c-3.2,0.5-6.3,1.3-9.3,2.3
			s-5.9,2.3-8.6,4c-1.3,0.9-2.6,1.8-3.9,2.8c-0.2,0.2-0.5,0.3-0.7,0.4s-0.4,0.1-0.6,0.1c-0.3,0-0.5-0.1-0.7-0.3l-0.1-0.1l-0.1-0.2
			c-0.1-0.1-0.1-0.2-0.1-0.3c0-0.1,0-0.3,0.1-0.4c0-0.2,0.1-0.3,0.2-0.4c0.1-0.2,0.2-0.4,0.4-0.6c0.5-0.7,1-1.4,1.5-2
			c6.3-7.6,14.5-13.3,23.8-16.6c1.5-0.5,3.1-1,4.7-1.4s3.2-0.7,4.8-1c0.1,0,0.1,0,0.1,0.1l0,0c0,0.1,0,0.1-0.1,0.1
			c-1.5,0.5-3,1-4.5,1.6s-3,1.2-4.4,1.9c-2.9,1.3-5.7,2.8-8.4,4.5C26.4,58,21.4,62,17.1,66.6c-0.5,0.6-1,1.2-1.4,1.8
			c-0.1,0.1-0.2,0.3-0.3,0.4L15.3,69v-0.1c0-0.1,0-0.2-0.1-0.3l-0.1-0.1l0,0c-0.1-0.1-0.1-0.1-0.2-0.1l0,0c0.1-0.1,0.3-0.1,0.4-0.2
			c1.3-1,2.6-1.9,4-2.7c2.8-1.7,5.8-3,9-3.8c3.1-0.9,6.3-1.5,9.5-1.9c3.2-0.5,6.4-0.7,9.6-0.8c0.1,0,0.1,0,0.1,0.1
			C47.4,59,47.3,59,47.2,59z M99.9,57.8c5.7,4.1,10.7,9.1,14.7,14.9c2,2.9,3.8,6,5.2,9.2c0.7,1.6,1.3,3.3,1.8,5l0.2,0.6
			c0,0.2,0.1,0.4,0.1,0.6s0,0.5-0.1,0.7c-0.2,0.6-0.7,1.2-1.2,1.6c-0.8,0.6-1.7,1-2.6,1.3c-1.7,0.6-3.4,1.1-5.2,1.4
			c-1.7,0.4-3.5,0.7-5.2,1c-3.5,0.5-7,0.8-10.5,0.8c-3.5,0.1-7.1-0.1-10.6-0.5c-1.8-0.2-3.6-0.6-5.3-1.1c-0.9-0.3-1.7-0.6-2.5-1.1
			c-0.2-0.1-0.4-0.3-0.6-0.5s-0.3-0.4-0.4-0.6c-0.2-0.4-0.4-0.8-0.4-1.2c0-0.1,0-0.1,0.1-0.2c0.1,0,0.1,0,0.1,0.1
			c0.1,0.4,0.3,0.8,0.6,1.1c0.1,0.2,0.3,0.3,0.4,0.4s0.3,0.2,0.5,0.3c0.8,0.3,1.6,0.5,2.4,0.6c1.7,0.2,3.4,0.3,5.1,0.3
			c3.4,0,6.9-0.1,10.3-0.4s6.9-0.4,10.3-0.8c3.4-0.2,6.7-0.8,10-1.7c0.7-0.2,1.4-0.5,2.1-0.9c0.2-0.1,0.3-0.2,0.4-0.4l0,0v-0.1
			l-0.2-0.6c-0.4-1.7-0.9-3.3-1.5-4.9c-1.2-3.2-2.8-6.3-4.6-9.2c-3.7-5.9-8.3-11.1-13.6-15.5c-0.1-0.1-0.1-0.1,0-0.2
			C99.7,57.8,99.9,57.8,99.9,57.8z"/>
		<path class="st1" d="M18.9,109.6c0.8,0,1.7,0.3,2.3,0.8c0.5,0.5,0.9,1.1,1.1,1.8c0.2,0.5,0.3,1.1,0.3,1.7c0,0.2-0.1,0.4-0.2,0.5
			c-0.2,0.2-0.4,0.3-0.7,0.3c-0.3,0-0.5-0.1-0.6-0.4c0-0.5-0.1-1-0.1-1.5s-0.2-1-0.6-1.3c-0.3-0.3-0.7-0.5-1.2-0.6
			c-0.3,0-0.6,0.1-0.9,0.2c-0.4,0.2-0.7,0.5-1,0.8c-0.4,0.4-0.7,0.9-0.9,1.4c-0.3,0.8-0.5,1.6-0.8,2.3c-0.2,0.8-0.3,1.6-0.3,2.4
			c0,0.9,0.1,1.8,0.5,2.7c0.2,0.5,0.6,0.9,1,1.3c0.4,0.2,0.8,0.3,1.2,0.3c0.5,0,1-0.1,1.4-0.4c0.4-0.2,0.8-0.6,1-1s0.4-0.8,0.5-1.3
			c0.1-0.3,0.2-0.6,0.4-0.8c0.1-0.1,0.1-0.1,0.2-0.1c0.2,0.1,0.3,0.2,0.5,0.2s0.2,0.1,0.4,0.1s0.1,0.2,0.2,0.3s0.1,0.2,0.1,0.3
			c0,0.2-0.1,0.4-0.2,0.5c-0.1,0.2-0.3,0.5-0.5,0.9c-0.2,0.3-0.4,0.7-0.6,1s-0.5,0.5-0.8,0.7s-0.6,0.4-1,0.5s-0.7,0.2-1.1,0.2
			c-0.6,0-1.1-0.1-1.7-0.2c-0.5-0.1-1-0.3-1.4-0.7c-0.4-0.3-0.7-0.7-0.9-1.1c-0.3-0.6-0.5-1.2-0.7-1.8c-0.2-0.6-0.4-1.3-0.4-2
			c0-0.4,0-0.8,0.1-1.2c0.1-0.4,0.4-1.3,0.8-2.6c0.4-1.1,1-2.2,1.8-3.1C16.9,110.1,17.9,109.7,18.9,109.6z"/>
		<path class="st1" d="M25,110.5c0.1-0.2,0.4-0.3,0.6-0.3h0.9c0.1,0.5,0.2,1.1,0.2,1.6v2.9c0,0.6,0,1.1,0.1,1.7
			c0.1,0.7,0.1,1.4,0.2,2.5c0,0.8,0.3,1.6,0.7,2.3c0.5,0.6,1.3,0.9,2.1,0.9c0.4,0,0.7,0,1.1-0.1c0.3-0.1,0.6-0.2,0.9-0.4
			c0.2-0.2,0.4-0.4,0.5-0.7l0.3-1.5c0.1-0.5,0.2-1.3,0.4-2.3c0.1-0.7,0.2-1.4,0.2-2.1v-2.8c0-0.3,0-0.6-0.1-0.9
			c0-0.2-0.1-0.4-0.1-0.6s0.1-0.3,0.2-0.4c0.2-0.1,0.5-0.2,0.7-0.1c0.4,0,0.7,0.3,0.8,1c0.1,0.6,0.1,1.2,0.1,1.8
			c0.1,0.3,0.1,0.5,0.1,0.8v0.6c0,0.9,0,1.7-0.1,2.6c-0.1,0.8-0.2,1.7-0.4,2.5s-0.5,1.6-0.9,2.3c-0.4,0.7-1,1.2-1.7,1.5
			c-0.5,0.2-1.1,0.4-1.7,0.4c-0.5,0-1-0.1-1.4-0.3c-0.5-0.2-1-0.5-1.5-0.8c-0.3-0.3-0.7-0.6-1-0.9s-0.5-0.6-0.7-1
			c-0.2-0.6-0.3-1.3-0.3-1.9c0-0.9-0.1-2.1-0.1-3.5c0-1.1,0-2.1,0.1-3.2C24.9,111.6,24.9,111,25,110.5z"/>
		<path class="st1" d="M38.6,109.9c1.4,0,2.9,0.1,4.3,0.5c1,0.1,1.8,0.7,2.2,1.6c0.2,0.5,0.4,1.1,0.4,1.7c0,0.5-0.1,0.9-0.3,1.3
			c-0.3,0.3-0.6,0.6-0.9,0.8c-0.4,0.2-0.6,0.4-0.6,0.6c0.8,0.3,1.5,0.8,2,1.4c0.4,0.6,0.7,1.3,0.7,2c0,0.5-0.1,1-0.4,1.5
			c-0.3,0.5-0.7,0.9-1.2,1.2c-0.7,0.4-1.4,0.6-2.2,0.8c-0.8,0.2-1.7,0.3-2.5,0.3c-0.4,0-0.7,0-1.1-0.1c-0.3-0.1-0.7-0.1-1-0.1
			s-0.5,0-0.8-0.1c-0.1-0.1-0.1-0.2-0.1-0.4V118c0-0.4,0-1.3,0.1-2.5s0.1-2.5,0.1-3.9h-0.5c-0.1,0-0.2,0-0.2-0.1s-0.1-0.1-0.1-0.2
			v-0.6c0-0.2,0.1-0.4,0.2-0.5C36.7,110,37.3,109.9,38.6,109.9z M38.9,111.6c-0.1,0.3-0.1,0.5-0.1,0.8v2c0,0.2,0,0.3-0.1,0.5
			c0,0.2-0.1,0.3-0.1,0.5s0.1,0.3,0.2,0.4c0.1,0,0.2,0.1,0.3,0.1c0.3,0,0.7,0,1-0.1c0.4-0.1,0.9-0.2,1.5-0.4
			c0.6-0.2,1.1-0.4,1.6-0.7c0.4-0.2,0.7-0.4,0.9-0.8c0.1-0.2,0.2-0.4,0.2-0.6c0-0.5-0.4-0.9-1.2-1.2c-0.8-0.3-1.7-0.5-2.6-0.4h-0.8
			c-0.1,0-0.2,0-0.3,0.1C39.2,111.7,39,111.7,38.9,111.6z M38.6,120.1v1.1c0,0.5,0,0.7,0.1,0.8s0.2,0.1,0.5,0.1h0.9
			c0.6-0.1,1.3-0.2,1.9-0.3c0.7-0.1,1.4-0.3,2-0.7c0.4-0.2,0.7-0.5,0.9-0.9c0.1-0.3,0.2-0.5,0.3-0.8c0-0.7-0.5-1.2-1.4-1.6
			s-2-0.6-3-0.6c-0.4,0-0.7,0-1.1,0.1c-0.3,0-0.6,0.1-0.8,0.3c-0.2,0.3-0.2,0.6-0.2,0.9L38.6,120.1z"/>
		<path class="st1" d="M53.6,109.4c0.5-0.1,0.8,0.2,1,1c0.2,1.2,0.4,2.3,0.6,3.3c0.2,1,0.5,2.2,0.9,3.7s0.6,2.5,0.7,2.9
			c0.1,0.5,0.3,1,0.5,1.5c0.2,0.3,0.3,0.7,0.4,1v0.2c0,0.1-0.1,0.1-0.4,0.2c-0.2,0.1-0.5,0.1-0.7,0.1c-0.3,0-0.4,0-0.5-0.2
			s-0.2-0.6-0.4-1.1c-0.1-0.4-0.2-0.8-0.3-1.2c0-0.2-0.1-0.5-0.2-0.7c-0.1-0.1-0.1-0.2-0.3-0.3c-0.1-0.1-0.3-0.1-0.4-0.1h-1
			c-0.9,0-1.8,0-2.7,0.1c-0.2,0.1-0.3,0.4-0.3,0.6c-0.1,0.3-0.2,0.7-0.3,1c-0.1,0.4-0.2,0.8-0.3,1.2c-0.1,0.3-0.2,0.7-0.3,1
			c-0.3,0-0.6-0.1-0.9-0.1c-0.2-0.1-0.4-0.2-0.6-0.3c0-0.5,0.1-0.9,0.3-1.3c0.2-0.6,0.3-1.3,0.5-1.9c-0.2,0-0.4-0.1-0.5-0.2
			l-0.3-0.3c-0.1-0.1-0.1-0.2-0.2-0.3s0.1-0.3,0.2-0.5c0.1-0.2,0.4-0.3,0.6-0.3H49c0.1,0,0.3,0,0.4-0.1c0.1,0,0.3-0.3,0.3-0.7
			c0-0.4,0.1-0.7,0.3-1c0.1-0.2,0.3-0.9,0.7-2.1c0.3-0.9,0.6-1.7,0.9-2.5c0.2-0.4,0.4-0.8,0.5-1.2l0.3-0.6c0.1-0.1,0.1-0.3,0.2-0.5
			s0.1-0.3,0.3-0.4s0.2-0.1,0.3-0.1L53.6,109.4z M50.9,118.2l3.5-0.3l-1.4-5.6L50.9,118.2z"/>
		<path class="st1" d="M63.2,123.9c-0.4,0-0.7,0-1.1-0.1c-0.3-0.1-0.7-0.1-1-0.1s-0.6,0-0.9-0.2c-0.1,0-0.1,0-0.1-0.1
			S60,123.1,60,123c-0.1-0.3-0.1-0.7,0-1v-4c0-0.4,0-1.3,0.1-2.5s0.1-2.4,0.1-3.6H60c-0.2,0-0.3-0.1-0.4-0.3s-0.1-0.2-0.1-0.3v-0.7
			c0-0.2,0.1-0.4,0.2-0.6c0.1-0.3,0.5-0.4,2.2-0.4c1.5,0,3,0.2,4.4,0.5c1,0.2,1.9,0.9,2.4,1.8c0.2,0.6,0.4,1.2,0.4,1.8
			c0,1-0.5,1.9-1.4,2.4c-0.2,0.1-0.3,0.2-0.4,0.3c0.7,0.3,1.3,0.8,1.8,1.4s0.7,1.4,0.7,2.2c0,0.6-0.1,1.1-0.4,1.6s-0.8,1-1.3,1.3
			c-0.7,0.4-1.5,0.7-2.3,0.8C64.9,123.8,64.1,123.9,63.2,123.9z M62.1,121.9h0.3c0.3,0,0.6,0,0.9-0.1c0.3,0,0.9-0.2,1.9-0.3
			c0.7-0.1,1.4-0.3,2-0.6c0.3-0.2,0.6-0.5,0.8-0.8c0.1-0.2,0.2-0.5,0.2-0.7c0-0.6-0.4-1-1.3-1.4s-1.9-0.6-2.9-0.6
			c-0.4,0-0.7,0-1.1,0.1c-0.4,0.1-0.6,0.2-0.7,0.2s-0.1,0.2-0.1,0.7C62.1,118.4,62.1,121.9,62.1,121.9z M62.3,111.9
			c0,0.2-0.1,0.4-0.1,0.6v2c0,0.2,0,0.3-0.1,0.5c0,0.1-0.1,0.3-0.1,0.4v0.2h0.3c0.3,0,0.6,0,0.9-0.1c0.5-0.1,1-0.2,1.4-0.4
			c0.5-0.2,1-0.4,1.5-0.7c0.3-0.2,0.6-0.4,0.8-0.7c0.1-0.2,0.1-0.3,0.2-0.5c0-0.4-0.4-0.8-1.1-1c-0.8-0.3-1.7-0.4-2.6-0.4
			L62.3,111.9L62.3,111.9z"/>
		<path class="st1" d="M71.7,123.9c-0.3,0-0.5-0.1-0.7-0.3c-0.1-0.3-0.2-0.7-0.2-1v-3.1c0-0.7,0-1.4,0.1-2.1
			c0.1-0.4,0.1-0.8,0.1-1.2v-3c0-0.2,0-0.4,0.1-0.6c0-0.2,0.1-0.3,0.1-0.5v-1c0-0.3,0-0.6,0.1-0.9s0.3-0.5,0.6-0.5
			c0.2-0.1,0.4-0.1,0.6-0.1c0.3,0,0.5,0.1,0.7,0.3c0.1,0.2,0.2,0.5,0.2,0.7v1c0,0.3,0,1.3-0.1,3c0,1-0.1,1.9-0.2,2.9
			c-0.1,0.6-0.1,1.1-0.1,1.7v3.5c0,0.3,0,0.6-0.2,0.9s-0.6,0.4-0.9,0.4h-0.2V123.9z"/>
		<path class="st1" d="M79.4,124.2c-0.4,0-0.8-0.2-0.9-0.6c-0.1-0.5-0.2-0.9-0.2-1.4v-0.6c0-0.8,0-2.3,0.1-4.6s0.1-3.6,0.1-3.9V112
			c0-0.2-0.1-0.2-0.1-0.2h-0.3c-0.2,0-0.4,0-0.6,0.1c-0.3,0.1-0.5,0.1-0.8,0.1h-0.5c-0.2,0-0.3-0.1-0.5-0.1s-0.4-0.2-0.5-0.4
			c-0.1-0.2-0.1-0.5-0.1-0.7v-0.6c0-0.1,0.1-0.2,0.2-0.2c0.5,0,1-0.1,1.5-0.1H80c0.2,0,0.5,0,0.7,0.1c0.3,0,0.6,0.1,0.9,0.1h1.1
			c0.3,0,0.6,0.1,0.8,0.3c0.2,0.2,0.3,0.6,0.2,0.9c0.1,0.4-0.1,0.9-0.5,1c-0.2,0-0.3,0-0.5,0c-0.3,0-0.7,0-1-0.1s-0.5-0.1-0.8-0.1
			c-0.1,0-0.3,0-0.4,0.1l0,0c-0.1,0.1-0.1,0.3-0.1,0.4v0.6c0,0.6,0,1.3-0.1,1.9c0,0.8-0.1,1.3-0.1,1.6v4.4c0,0.5,0,1.1-0.1,1.6v0.8
			c0,0.5-0.1,0.8-0.4,0.9C79.7,124.3,79.6,124.2,79.4,124.2z"/>
		<path class="st1" d="M90.8,123.7c-0.6,0-1.2-0.1-1.8-0.2c-0.6-0.1-1.1-0.3-1.5-0.7c-0.4-0.3-0.8-0.7-1-1.2
			c-0.3-0.6-0.5-1.2-0.7-1.8c-0.2-0.7-0.4-1.4-0.4-2.1c0-0.4,0-0.9,0.1-1.3c0.2-0.9,0.5-1.8,0.8-2.6c0.4-1.2,1-2.3,1.9-3.2
			c0.7-0.8,1.7-1.2,2.8-1.2c0.9-0.1,1.7,0.2,2.4,0.8c0.6,0.5,1,1.2,1.2,1.9c0.2,0.6,0.3,1.2,0.3,1.8c0,0.2-0.1,0.5-0.2,0.7
			c-0.2,0.3-0.6,0.4-0.9,0.4s-0.7-0.2-0.8-0.5l-0.1-1.6c0-0.5-0.2-0.9-0.6-1.2c-0.2-0.3-0.6-0.5-1-0.5c-0.3,0-0.6,0.1-0.8,0.2
			c-0.8,0.4-1.5,1.1-1.8,2c-0.3,0.8-0.5,1.6-0.8,2.3c-0.2,0.8-0.3,1.5-0.3,2.3c0,0.9,0.1,1.8,0.4,2.6c0.2,0.5,0.5,0.9,0.9,1.2
			c0.8,0.4,1.7,0.4,2.4-0.1c0.4-0.2,0.7-0.5,0.9-0.9c0.2-0.4,0.4-0.8,0.5-1.2c0.2-0.7,0.3-0.8,0.4-0.9s0.2-0.2,0.4-0.2l0.6,0.2
			c0.2,0,0.3,0.1,0.4,0.2s0.2,0.2,0.3,0.4c0.1,0.3,0.1,0.7-0.1,1l-0.5,0.9c-0.2,0.3-0.4,0.7-0.6,1s-0.5,0.6-0.8,0.8
			c-0.3,0.2-0.7,0.4-1,0.6C91.5,123.5,91.1,123.6,90.8,123.7z"/>
		<path class="st1" d="M101.4,124.2c-1.3,0-2.5-0.6-3.2-1.7c-0.7-0.9-1.2-1.9-1.4-3c-0.1-0.6-0.2-1.1-0.3-1.7v-0.7
			c0-1.6,0.5-3.3,1.3-4.7c0.8-1.4,2.1-2.4,3.6-2.9c0.1,0,0.2-0.1,0.4-0.1h0.4c1.2,0.1,2.4,0.7,3,1.8c0.7,0.9,1.3,2,1.5,3.2
			c0.1,0.7,0.2,1.5,0.2,2.2c0,1.6-0.4,3.2-1.1,4.7c-0.8,1.5-1.6,2.4-2.4,2.5l-1.3,0.2L101.4,124.2z M101.8,111.2l-0.9,0.2
			c-0.5,0.1-1,0.7-1.4,1.6c-0.5,1.1-0.8,2.3-0.9,3.5v1c0,1,0.1,1.9,0.5,2.8c0.2,0.6,0.6,1.1,1.1,1.5c0.3,0.2,0.6,0.4,0.9,0.5
			c0.1,0,0.2,0.1,0.4,0.1h0.1c0.8-0.2,1.5-0.7,1.9-1.5s0.7-1.8,0.8-2.7c0.1-0.8,0.1-1.5,0.1-2.3c0-0.7-0.1-1.3-0.2-2
			c-0.1-0.5-0.4-1-0.7-1.4c-0.3-0.4-0.6-0.7-0.9-1C102.5,111.3,102.2,111.2,101.8,111.2z"/>
		<path class="st1" d="M109.1,123.9c-0.3,0-0.5-0.1-0.7-0.3c-0.1-0.3-0.2-0.7-0.2-1v-3.1c0-0.7,0-1.4,0.1-2.1
			c0.1-0.4,0.1-0.8,0.1-1.2v-3c0-0.2,0.1-0.4,0.1-0.6s0.1-0.3,0.1-0.5v-1c0-0.3,0-0.6,0.1-0.9s0.3-0.5,0.6-0.5
			c0.2-0.1,0.4-0.1,0.6-0.1c0.3,0,0.5,0.1,0.7,0.3c0.1,0.2,0.2,0.5,0.2,0.7v1c0,0.3,0,1.3-0.1,3c0,1-0.1,1.9-0.2,2.9
			c-0.1,0.6-0.1,1.1-0.1,1.7v3.5c0,0.3,0,0.6-0.2,0.9s-0.6,0.4-0.9,0.4h-0.2V123.9z"/>
		<path class="st1" d="M113.8,123.9c-0.2,0-0.4,0-0.6-0.1s-0.4-0.2-0.5-0.4c-0.1-0.2-0.1-0.4-0.1-0.6v-4.6c0-0.3,0-1.1,0.1-2.4
			s0.1-2.5,0.2-3.5v-1.6c0-0.2,0.1-0.4,0.2-0.6c0.1-0.1,0.3-0.2,0.5-0.2h0.7c0.1,0,0.3-0.1,0.4-0.1h0.3c0.2,0,0.4,0.1,0.6,0.2
			s0.4,0.5,0.6,1.1c0.1,0.6,0.3,1.1,0.5,1.6c0.2,0.6,0.5,1.2,0.8,1.9c0.3,0.6,0.6,1.2,0.9,1.8c0.3,0.5,0.5,1.3,0.8,1.9l0.3,0.6
			c0-0.6,0-1.4,0.1-2.6c0.1-1.7,0.1-3,0.1-4v-0.8c0-0.6,0-1.1,0.2-1.7c0.1-0.3,0.4-0.5,0.7-0.5c0.3,0,0.6,0.1,0.8,0.4
			c0.2,0.4,0.3,0.9,0.2,1.3v5.8l-0.1,1.9l-0.1,1.1v1.4c0,0.2,0,0.5-0.1,0.7c0,0.3-0.1,0.5-0.2,0.8c-0.1,0.4-0.5,0.7-0.9,0.7
			c-0.3,0-0.5-0.1-0.8-0.2s-0.6-0.5-0.9-1.3c-0.2-0.6-0.4-1.2-0.7-1.7c-0.3-0.7-0.6-1.3-1-1.9l-1.2-2.7l-0.8-2.2
			c-0.1-0.2-0.1-0.4-0.3-0.6c0,0.5-0.1,1.2-0.1,2.1v7.8c0,0.3,0,0.6-0.2,0.8C114.2,123.7,114,123.9,113.8,123.9z"/>
	</g>
</g>
</svg>
